# xmcd
#
# Track frame offsets:
#	150
#	13917
#	29459
#	48495
#	62403
#	85587
#	98432
#
# Disc length: 1706 seconds
#
# Revision: 1
# Processed by: cddbd v1.5.1PL2 Copyright (c) Steve Scherf et al.
# Submitted via: audiograbber 1.83.01
#
DISCID=4906a807
DTITLE=Nick Ogawa - Water Song
DYEAR=1900
DGENRE=
TTITLE0=Deeper than the Vine
TTITLE1=To the Stars
TTITLE2=Distance and Space
TTITLE3=Time for Some Action
TTITLE4=Shady Grove
TTITLE5=Beggars Can't be Choosers
TTITLE6=Water Song
EXTD=
EXTT0=
EXTT1=
EXTT2=
EXTT3=
EXTT4=
EXTT5=
EXTT6=
PLAYORDER=
